<svg id="Layer_1" data-name="Layer 1" xmlns="http://www.w3.org/2000/svg" viewBox="0 0 3600 553"><defs><style>.cls-1{opacity:0.5;}.cls-2{fill:#e6e7e8;}.cls-3{fill:#ebeced;}.cls-4{fill:#f2f3f5;}.cls-5{fill:#f5f6f7;}</style></defs><title>Artboard 1</title><g class="cls-1"><polygon class="cls-2" points="1800 274.48 1709.56 164 1573.63 133 1800 411.79 1800 274.48"/><path id="Rectangle_3_copy_3" data-name="Rectangle 3 copy 3" class="cls-3" d="M1253.24,465,1139.65,0l170.88,11,128.15,471Z"/><path id="Rectangle_3_copy_4" data-name="Rectangle 3 copy 4" class="cls-4" d="M1253.24,465l320.39-332,135.93,31L1438.68,482Z"/><path id="Rectangle_3_copy_2" data-name="Rectangle 3 copy 2" class="cls-5" d="M674.6,499,1139.65,0l170.88,11L863,553Z"/><path id="Rectangle_3_copy" data-name="Rectangle 3 copy" class="cls-2" d="M674.6,499,470.91,189,628.2,210,863,553Z"/><path class="cls-4" d="M91.11,524l379.8-335L628.2,210,226.37,551Z"/><polygon class="cls-2" points="0 274.48 0 411.79 91.11 524 226.37 551 0 274.48"/></g><g class="cls-1"><polygon class="cls-2" points="3600 274.48 3509.55 164 3373.63 133 3600 411.79 3600 274.48"/><path id="Rectangle_3_copy_3-2" data-name="Rectangle 3 copy 3" class="cls-3" d="M3053.24,465,2939.65,0l170.88,11,128.15,471Z"/><path id="Rectangle_3_copy_4-2" data-name="Rectangle 3 copy 4" class="cls-4" d="M3053.24,465l320.39-332,135.93,31L3238.68,482Z"/><path id="Rectangle_3_copy_2-2" data-name="Rectangle 3 copy 2" class="cls-5" d="M2474.6,499,2939.65,0l170.88,11L2663,553Z"/><path id="Rectangle_3_copy-2" data-name="Rectangle 3 copy" class="cls-2" d="M2474.6,499,2270.91,189l157.29,21L2663,553Z"/><path class="cls-4" d="M1891.11,524l379.8-335,157.29,21L2026.37,551Z"/><polygon class="cls-2" points="1800 274.48 1800 411.79 1891.11 524 2026.37 551 1800 274.48"/></g></svg>