<?xml version="1.0" standalone="no"?>
<!DOCTYPE svg PUBLIC "-//W3C//DTD SVG 20010904//EN"
 "http://www.w3.org/TR/2001/REC-SVG-20010904/DTD/svg10.dtd">
<svg version="1.0" xmlns="http://www.w3.org/2000/svg"
 width="288.000000pt" height="288.000000pt" viewBox="0 0 288.000000 288.000000"
 preserveAspectRatio="xMidYMid meet">
<metadata>
Created by potrace 1.11, written by Peter Selinger 2001-2013
</metadata>
<g transform="translate(0.000000,288.000000) scale(0.100000,-0.100000)"
fill="#000000" stroke="none">
<path d="M598 1922 l-596 -717 316 -5 316 -5 -196 -235 -196 -235 314 -3 c173
-1 314 -5 314 -7 0 -3 -87 -110 -194 -238 l-194 -232 601 -3 c495 -2 604 0
612 11 11 16 73 91 125 152 50 59 109 130 171 205 29 36 63 76 75 90 12 14
126 151 254 305 128 154 250 300 270 325 21 25 95 113 164 195 l125 150 -316
5 -316 5 196 235 196 235 -316 5 -316 5 49 60 c26 33 51 62 54 65 3 3 64 75
134 160 71 85 136 163 144 173 14 16 -15 17 -589 16 l-604 0 -597 -717z m1522
-11 c0 -5 -3 -11 -8 -13 -4 -1 -28 -28 -52 -58 -25 -30 -48 -57 -51 -60 -3 -3
-50 -59 -105 -125 -55 -66 -109 -131 -121 -145 -12 -14 -48 -57 -80 -96 -69
-84 -70 -85 -243 -292 l-135 -162 -283 0 c-269 0 -284 1 -271 18 15 18 143
174 169 205 12 14 33 17 140 17 l125 1 95 115 c52 63 102 123 110 132 8 9 33
39 55 67 22 27 45 55 50 61 6 6 73 86 149 177 l139 167 159 0 c89 0 158 -4
158 -9z m240 -477 c0 -3 -6 -11 -12 -18 -24 -24 -62 -70 -208 -246 -79 -96
-147 -177 -150 -180 -3 -3 -35 -41 -70 -85 -61 -74 -101 -123 -125 -149 -6 -6
-30 -36 -55 -66 -25 -30 -50 -60 -55 -66 -6 -6 -35 -41 -65 -78 l-53 -66 -284
0 c-273 0 -284 1 -271 18 7 10 51 64 98 120 l84 102 126 0 125 1 45 56 c25 30
50 61 55 67 12 13 102 121 127 151 23 29 181 218 193 231 6 6 48 57 94 113
l84 101 159 0 c87 0 158 -3 158 -6z"/>
</g>
</svg>
